<?xml version="1.0" standalone="no"?>
<!DOCTYPE svg PUBLIC "-//W3C//DTD SVG 20010904//EN"
 "http://www.w3.org/TR/2001/REC-SVG-20010904/DTD/svg10.dtd">
<svg version="1.0" xmlns="http://www.w3.org/2000/svg"
 width="214.000000pt" height="180.000000pt" viewBox="0 0 214.000000 180.000000"
 preserveAspectRatio="xMidYMid meet">

<g transform="translate(0.000000,180.000000) scale(0.100000,-0.100000)"
fill="#000000" stroke="none">
<path d="M960 1560 c-19 -11 -46 -19 -59 -20 -13 0 -39 -9 -57 -21 -36 -22
-94 -97 -94 -122 0 -7 -12 -27 -28 -44 -25 -29 -27 -36 -25 -117 1 -60 -2 -86
-10 -86 -28 -1 -39 -17 -28 -39 7 -12 16 -19 22 -16 5 4 17 4 27 1 13 -5 17
-17 17 -58 1 -86 23 -234 40 -268 9 -17 32 -52 51 -77 38 -50 40 -59 20 -82
-29 -32 -63 -113 -58 -137 l4 -24 317 2 316 3 0 55 0 55 -35 3 c-56 4 -77 20
-89 66 -15 62 3 186 30 207 16 12 20 22 15 40 -5 15 -4 19 1 11 7 -9 17 -4 41
19 46 45 65 121 61 244 -1 11 2 43 6 72 6 43 4 59 -16 100 -24 50 -112 143
-136 143 -7 0 -23 11 -35 25 -25 28 -68 45 -124 47 -21 0 -55 9 -74 20 -43 22
-56 22 -100 -2z m114 -230 c35 -13 36 -50 2 -50 -17 0 -23 -5 -22 -17 1 -15
-9 -19 -54 -23 -48 -4 -55 -8 -60 -30 -4 -18 -13 -26 -34 -28 -16 -2 -33 1
-39 7 -8 8 -8 11 1 11 21 0 13 36 -10 48 -13 6 -18 11 -11 11 7 1 10 8 7 16
-4 9 0 15 10 16 32 3 36 4 36 14 1 27 124 45 174 25z m31 -150 c3 -5 -3 -10
-14 -10 -11 0 -23 5 -26 10 -3 6 3 10 14 10 11 0 23 -4 26 -10z m-381 -51 c-3
-5 -10 -7 -15 -3 -5 3 -7 10 -3 15 3 5 10 7 15 3 5 -3 7 -10 3 -15z m480 -119
c18 0 27 -39 15 -62 -6 -12 -6 -18 1 -18 6 0 5 -8 -2 -21 -9 -13 -20 -19 -35
-16 -16 3 -23 -1 -23 -12 0 -9 -9 -27 -20 -41 -11 -14 -20 -30 -20 -37 0 -6
-5 -15 -10 -18 -7 -5 -9 9 -4 40 5 44 4 48 -31 82 -26 26 -34 30 -25 14 11
-22 11 -23 -22 -16 -42 9 -43 10 -26 34 8 12 18 18 23 13 4 -4 6 3 3 14 -5 19
0 22 48 27 34 4 61 13 76 26 19 18 23 19 31 6 4 -8 14 -15 21 -15z m-313 -33
c-13 -13 -26 -3 -16 12 3 6 11 8 17 5 6 -4 6 -10 -1 -17z m114 13 c3 -5 2 -10
-4 -10 -5 0 -13 5 -16 10 -3 6 -2 10 4 10 5 0 13 -4 16 -10z m-195 -35 c0 -2
-8 -18 -19 -35 -18 -30 -19 -31 -25 -8 -10 39 -7 48 19 48 14 0 25 -2 25 -5z
m550 -25 c0 -5 -5 -10 -11 -10 -5 0 -7 5 -4 10 3 6 8 10 11 10 2 0 4 -4 4 -10z
m-310 -150 c-8 -5 -22 -10 -30 -10 -13 0 -13 1 0 10 8 5 22 10 30 10 13 0 13
-1 0 -10z m-53 -56 c-2 -2 -12 -1 -22 3 -18 6 -18 7 1 13 17 7 33 -5 21 -16z"/>
</g>
</svg>
